<svg width="28" height="27" viewBox="0 0 28 27" fill="none" xmlns="http://www.w3.org/2000/svg">
<path d="M11.2718 6.61768L9.71338 8.17282L14.7755 13.2353L9.71338 18.2978L11.2718 19.853L17.9034 13.2353L11.2718 6.61768Z" fill="#5D62B5"/>
<path d="M10.5905 10.4228L9.72474 9.55884L6.04053 13.2353L9.72474 16.9118L10.5905 16.0478L7.77825 13.2353L10.5905 10.4228Z" fill="#5D62B5"/>
<path d="M3 5V4H2V5H3ZM20 5H21V4H20V5ZM20 21V22H21V21H20ZM3 21H2V22H3V21ZM3 6H20V4H3V6ZM19 5V21H21V5H19ZM20 20H3V22H20V20ZM4 21V5H2V21H4Z" fill="black"/>
</svg>
